<?xml version="1.0" encoding="UTF-8" standalone="no"?><!DOCTYPE svg PUBLIC "-//W3C//DTD SVG 1.1//EN" "http://www.w3.org/Graphics/SVG/1.1/DTD/svg11.dtd"><svg width="100%" height="100%" viewBox="0 0 3391 2919" version="1.1" xmlns="http://www.w3.org/2000/svg" xmlns:xlink="http://www.w3.org/1999/xlink" xml:space="preserve" xmlns:serif="http://www.serif.com/" style="fill-rule:evenodd;clip-rule:evenodd;stroke-linejoin:round;stroke-miterlimit:2;"><g><ellipse cx="1461.357" cy="1459.167" rx="1461.357" ry="1459.167" style="fill:#1a2d50;"/><path d="M1459.182,186.726c251.808,0 486.523,73.188 684.032,199.452c-15.566,59.033 -39.267,102.502 -69.375,132.61c-47.574,47.574 -128.511,79.154 -249.555,88.75l-41.843,2.376l-71.315,1.809c-408.692,29.922 -398.474,658.286 30.652,658.286c167.712,0 274.395,34.166 332.061,91.832c47.574,47.574 79.154,128.511 88.75,249.555l2.376,41.843l1.809,71.315c18.126,247.579 255.866,341.429 440.49,281.55c-204.632,428.132 -641.808,723.981 -1148.082,723.981c-702.329,0 -1271.679,-569.35 -1271.679,-1271.679c0,-702.329 569.35,-1271.679 1271.679,-1271.679Z" style="fill:#fff;"/><path d="M2636.663,186.726c0,133.468 19.308,242.61 56.633,329.228c23.243,53.94 53.474,99.145 90.379,136.05c38.445,38.445 85.896,69.646 142.846,93.251c74.551,30.901 165.378,48.784 273.585,52.86l48.847,0.9c113.991,0 159.011,103.456 135.06,185.175c-13.984,47.713 -51.481,88.016 -112.491,95.989l-22.568,1.431c-101.026,0 -188.114,11.062 -262.046,32.627c-84.567,24.666 -151.921,63.074 -203.232,114.385c-49.341,49.341 -86.751,113.517 -111.484,193.568c-19.765,63.972 -31.435,138.083 -34.628,222.863l-0.9,48.847c0,188.397 -282.595,188.397 -282.595,0c0,-101.552 -11.178,-189.021 -32.965,-263.201c-24.679,-84.025 -62.97,-151 -114.047,-202.078c-56.412,-56.412 -132.216,-97.228 -228.966,-121.334c-55.498,-13.828 -117.889,-22.157 -187.466,-24.778l-48.847,-0.9c-89.926,0 -136.929,-64.386 -141.007,-131.692c-2.389,-39.425 9.95,-79.852 37.017,-108.927c19.498,-20.945 46.639,-35.999 81.422,-40.545l22.568,-1.431c138.927,0 251.496,-20.919 339.742,-61.302c49.327,-22.573 91.054,-51.228 125.536,-85.71c57.765,-57.765 99.177,-135.863 123.039,-235.963c15.865,-66.55 23.973,-142.825 23.973,-229.315c0,-86.29 59.285,-133.058 123.547,-140.302c76.04,-8.572 159.049,38.195 159.049,140.302Z" style="fill:#2563eb;"/></g></svg>